<svg width="48" role="img" height="48" aria-hidden="true" style="display: inline-block;" viewBox="0 0 48 48" fill="none" xmlns="http://www.w3.org/2000/svg" data-slot="icon" class="h-12 w-12   dark:bg-white dark:text-primary-500  ">
<path d="M8 12C8 10.4087 9.68571 8.88258 12.6863 7.75736C15.6869 6.63214 19.7565 6 24 6C28.2435 6 32.3131 6.63214 35.3137 7.75736C38.3143 8.88258 40 10.4087 40 12V36C40 37.5913 38.3143 39.1174 35.3137 40.2426C32.3131 41.3679 28.2435 42 24 42C19.7565 42 15.6869 41.3679 12.6863 40.2426C9.68571 39.1174 8 37.5913 8 36V12Z" fill="none" stroke="currentColor" stroke-width="1.5"/>
<path d="M8 14C8 15.5913 9.68571 17.1174 12.6863 18.2426C15.6869 19.3679 19.7565 20 24 20C28.2435 20 32.3131 19.3679 35.3137 18.2426C38.3143 17.1174 40 15.5913 40 14" fill="none"/>
<path d="M8 14C8 15.5913 9.68571 17.1174 12.6863 18.2426C15.6869 19.3679 19.7565 20 24 20C28.2435 20 32.3131 19.3679 35.3137 18.2426C38.3143 17.1174 40 15.5913 40 14" stroke="currentColor" stroke-width="1.5"/>
</svg>