<svg style="display: inline-block;" width="48" height="48" viewBox="0 0 48 48" fill="none" xmlns="http://www.w3.org/2000/svg" class="h-12 w-12   dark:bg-white dark:text-primary-500  ">
<path d="M38.7838 12.0388C38.7838 12.2315 38.6229 12.6265 37.921 13.1591C37.2534 13.6656 36.2358 14.1856 34.8999 14.6528C32.2358 15.5843 28.438 16.2597 23.9998 16.2597C19.8801 16.2597 16.0789 15.5858 13.3286 14.6507C11.9496 14.1818 10.8685 13.6586 10.1485 13.1457C9.37945 12.5978 9.21582 12.2045 9.21582 12.0388C9.21582 11.8957 9.3412 11.5594 10.0793 11.1057C10.7752 10.6779 11.832 10.2656 13.2043 9.90881C15.9378 9.19812 19.7549 8.75 23.9998 8.75C28.2447 8.75 32.0618 9.19812 34.7953 9.90881C36.1676 10.2656 37.2244 10.6779 37.9203 11.1057C38.6584 11.5594 38.7838 11.8957 38.7838 12.0388Z" fill="none" stroke="currentColor" stroke-width="1.5"/>
<path d="M9.21582 16.2501V15.0679C10.7808 16.0511 12.7629 16.7926 14.9354 17.3171C17.7456 17.9955 20.9421 18.3272 24.1174 18.3224C27.2926 18.3177 30.47 17.9764 33.2419 17.2951C35.3565 16.7754 37.2779 16.0475 38.7838 15.0887V16.2495C28.7259 20.7113 17.8505 20.088 9.21582 16.2501Z" fill="none" stroke="currentColor" stroke-width="1.5"/>
<path d="M9.21582 36.6903V18.4495C18.7303 22.2936 29.2693 22.2936 38.7838 18.4495V36.715C33.0308 38.4885 28.7363 39.2863 24.3557 39.2488C19.9627 39.2112 15.4379 38.3335 9.21582 36.6903Z" fill="none" stroke="currentColor" stroke-width="1.5"/>
</svg>