<svg style="display: inline-block;" width="48" height="48" viewBox="0 0 48 48" fill="none" xmlns="http://www.w3.org/2000/svg" class="h-12 w-12   dark:bg-white dark:text-primary-500  ">
<path d="M39.2499 24C39.2499 27.3782 38.7924 30.4056 38.0734 32.5624C37.7127 33.6447 37.2996 34.4665 36.8773 35.0023C36.4484 35.5465 36.0962 35.6944 35.8518 35.6944C35.6073 35.6944 35.2551 35.5465 34.8262 35.0023C34.4039 34.4665 33.9909 33.6447 33.6301 32.5624C32.9112 30.4056 32.4536 27.3782 32.4536 24C32.4536 20.6217 32.9112 17.5944 33.6301 15.4376C33.9909 14.3553 34.4039 13.5335 34.8262 12.9977C35.2551 12.4535 35.6073 12.3055 35.8518 12.3055C36.0962 12.3055 36.4484 12.4535 36.8773 12.9977C37.2996 13.5335 37.7127 14.3553 38.0734 15.4376C38.7924 17.5944 39.2499 20.6217 39.2499 24Z" fill="none" stroke="currentColor" stroke-width="1.5"/>
<path d="M11.4532 35.3981C7.97576 28.6327 7.72969 19.0244 11.4377 12.3055H32.6601C31.9435 13.3419 31.4076 14.696 31.017 16.1636C30.4039 18.4676 30.1029 21.2292 30.1029 23.9629C30.1029 26.6963 30.4038 29.4408 31.0179 31.7098C31.3972 33.1115 31.9158 34.4068 32.6097 35.3981H11.4532Z" fill="none" stroke="currentColor" stroke-width="1.5"/>
</svg>