<svg style="display: inline-block;" width="48" height="48" viewBox="0 0 48 48" fill="none" xmlns="http://www.w3.org/2000/svg" class="h-12 w-12   dark:bg-white dark:text-primary-500  ">
<path d="M8.75 30.9192V18.1524C8.97703 18.265 9.23398 18.3884 9.51678 18.5181C10.6713 19.0473 12.2712 19.6872 14.0345 20.1156C17.503 20.9582 21.9382 21.0485 24.6084 17.3446C26.7074 14.4331 30.2722 14.3428 33.6114 15.154C35.252 15.5526 36.7579 16.1531 37.8581 16.6575C38.4068 16.909 38.851 17.1349 39.1564 17.2971C39.1893 17.3145 39.2205 17.3312 39.25 17.3471V30.1427C39.0496 30.0476 38.8255 29.9447 38.5804 29.8371C37.4844 29.3557 35.9568 28.7747 34.2428 28.3861C30.8535 27.6176 26.4977 27.5559 23.4489 30.8588C20.9593 33.5559 17.315 33.6176 14.0889 32.8861C12.4953 32.5248 11.0613 31.9807 10.0227 31.5246C9.50469 31.2971 9.08809 31.0928 8.80275 30.9464C8.78463 30.9371 8.76705 30.928 8.75 30.9192Z" fill="none" stroke="currentColor" stroke-width="1.5"/>
</svg>