<svg style="display: inline-block;" width="49" height="48" viewBox="0 0 49 48" fill="none" xmlns="http://www.w3.org/2000/svg" class="h-12 w-12   dark:bg-white dark:text-primary-500  ">
<path d="M13.475 27.843C13.475 27.4177 13.475 27.0052 13.475 26.6055C13.475 26.2058 13.475 25.7622 13.475 25.2745V22.86C13.475 22.3577 13.475 21.903 13.475 21.496C13.475 21.089 13.475 20.6692 13.475 20.2365L14.0635 21.3475H13.057C12.6353 21.3475 12.2595 21.3475 11.9295 21.3475C11.6032 21.3475 11.2933 21.3475 11 21.3475V20H17.479V21.3475C17.1857 21.3475 16.8758 21.3475 16.5495 21.3475C16.2232 21.3475 15.8473 21.3475 15.422 21.3475H14.4155L15.0095 20.2365C15.0095 20.6692 15.0095 21.089 15.0095 21.496C15.0095 21.903 15.0095 22.3577 15.0095 22.86V25.2745C15.0095 25.7622 15.0095 26.2058 15.0095 26.6055C15.0095 27.0052 15.0095 27.4177 15.0095 27.843H13.475Z" fill="currentColor"/>
<path d="M18.6291 27.843C18.6291 27.4177 18.6291 27.0052 18.6291 26.6055C18.6291 26.2058 18.6291 25.7622 18.6291 25.2745V22.618C18.6291 22.1193 18.6291 21.6665 18.6291 21.2595C18.6291 20.8525 18.6291 20.4327 18.6291 20H23.7221V21.2815C23.3774 21.2815 23.0053 21.2815 22.6056 21.2815C22.2096 21.2815 21.7421 21.2815 21.2031 21.2815H19.3111L20.1361 20.2365C20.1361 20.6692 20.1361 21.0908 20.1361 21.5015C20.1361 21.9085 20.1361 22.3613 20.1361 22.86V25.0325C20.1361 25.5202 20.1361 25.9638 20.1361 26.3635C20.1361 26.7632 20.1361 27.1775 20.1361 27.6065L19.4101 26.5615H21.3186C21.7696 26.5615 22.1968 26.5615 22.6001 26.5615C23.0034 26.5615 23.3903 26.5615 23.7606 26.5615V27.843H18.6291ZM19.7896 24.488V23.2725H21.2526C21.7439 23.2725 22.1656 23.2725 22.5176 23.2725C22.8696 23.2725 23.2088 23.2725 23.5351 23.2725V24.488C23.1904 24.488 22.8421 24.488 22.4901 24.488C22.1381 24.488 21.7238 24.488 21.2471 24.488H19.7896Z" fill="currentColor"/>
<path d="M24.6648 27.843C24.8665 27.48 25.0718 27.1115 25.2808 26.7375C25.4898 26.3635 25.7098 25.973 25.9408 25.566L27.0408 23.6135V23.993L26.0728 22.376C25.8492 22.0057 25.6218 21.6298 25.3908 21.2485C25.1635 20.8672 24.916 20.451 24.6483 20H26.4028C26.5862 20.3227 26.7658 20.638 26.9418 20.946C27.1178 21.254 27.2847 21.5492 27.4423 21.8315L28.0583 22.9095H28.1793L28.7733 21.8205C28.9273 21.5382 29.0887 21.243 29.2573 20.935C29.426 20.627 29.5947 20.3153 29.7633 20H31.4628C31.2245 20.429 30.9935 20.8378 30.7698 21.2265C30.5498 21.6115 30.3463 21.9672 30.1593 22.2935L29.1088 24.136V23.7125L30.1868 25.4285C30.4545 25.8502 30.7093 26.2553 30.9513 26.644C31.1933 27.029 31.4445 27.4287 31.7048 27.843H29.8898C29.7028 27.5277 29.5268 27.2307 29.3618 26.952C29.1968 26.6733 29.0392 26.4057 28.8888 26.149L28.1353 24.8675H28.0088L27.3048 26.1545C27.1545 26.4258 27.0042 26.6972 26.8538 26.9685C26.7072 27.2398 26.5477 27.5313 26.3753 27.843H24.6648Z" fill="currentColor"/>
<path d="M34.7982 27.843C34.7982 27.4177 34.7982 27.0052 34.7982 26.6055C34.7982 26.2058 34.7982 25.7622 34.7982 25.2745V22.86C34.7982 22.3577 34.7982 21.903 34.7982 21.496C34.7982 21.089 34.7982 20.6692 34.7982 20.2365L35.3867 21.3475H34.3802C33.9586 21.3475 33.5827 21.3475 33.2527 21.3475C32.9264 21.3475 32.6166 21.3475 32.3232 21.3475V20H38.8022V21.3475C38.5089 21.3475 38.1991 21.3475 37.8727 21.3475C37.5464 21.3475 37.1706 21.3475 36.7452 21.3475H35.7387L36.3327 20.2365C36.3327 20.6692 36.3327 21.089 36.3327 21.496C36.3327 21.903 36.3327 22.3577 36.3327 22.86V25.2745C36.3327 25.7622 36.3327 26.2058 36.3327 26.6055C36.3327 27.0052 36.3327 27.4177 36.3327 27.843H34.7982Z" fill="currentColor"/>
</svg>