<svg aria-roledescription="er" role="graphics-document document" viewBox="-117.34375 0 767.287109375 640" style="max-width: 767.287109375px;" xmlns="http://www.w3.org/2000/svg" width="100%" id="diagram-erDiagram-81738214175344"><style>#diagram-erDiagram-81738214175344{font-family:"trebuchet ms",verdana,arial,sans-serif;font-size:14px;fill:#333;}#diagram-erDiagram-81738214175344 .error-icon{fill:#ffffff;}#diagram-erDiagram-81738214175344 .error-text{fill:#000000;stroke:#000000;}#diagram-erDiagram-81738214175344 .edge-thickness-normal{stroke-width:1px;}#diagram-erDiagram-81738214175344 .edge-thickness-thick{stroke-width:3.5px;}#diagram-erDiagram-81738214175344 .edge-pattern-solid{stroke-dasharray:0;}#diagram-erDiagram-81738214175344 .edge-thickness-invisible{stroke-width:0;fill:none;}#diagram-erDiagram-81738214175344 .edge-pattern-dashed{stroke-dasharray:3;}#diagram-erDiagram-81738214175344 .edge-pattern-dotted{stroke-dasharray:2;}#diagram-erDiagram-81738214175344 .marker{fill:#000000;stroke:#000000;}#diagram-erDiagram-81738214175344 .marker.cross{stroke:#000000;}#diagram-erDiagram-81738214175344 svg{font-family:"trebuchet ms",verdana,arial,sans-serif;font-size:14px;}#diagram-erDiagram-81738214175344 p{margin:0;}#diagram-erDiagram-81738214175344 .entityBox{fill:#ffffff;stroke:#000000;}#diagram-erDiagram-81738214175344 .attributeBoxOdd{fill:#ffffff;stroke:#000000;}#diagram-erDiagram-81738214175344 .attributeBoxEven{fill:#f2f2f2;stroke:#000000;}#diagram-erDiagram-81738214175344 .relationshipLabelBox{fill:#ffffff;opacity:0.7;background-color:#ffffff;}#diagram-erDiagram-81738214175344 .relationshipLabelBox rect{opacity:0.5;}#diagram-erDiagram-81738214175344 .relationshipLine{stroke:#000000;}#diagram-erDiagram-81738214175344 .entityTitleText{text-anchor:middle;font-size:18px;fill:#333;}#diagram-erDiagram-81738214175344 #MD_PARENT_START{fill:#f5f5f5!important;stroke:#000000!important;stroke-width:1;}#diagram-erDiagram-81738214175344 #MD_PARENT_END{fill:#f5f5f5!important;stroke:#000000!important;stroke-width:1;}#diagram-erDiagram-81738214175344 .node .neo-node{stroke:#000000;}#diagram-erDiagram-81738214175344 [data-look="neo"].node rect,#diagram-erDiagram-81738214175344 [data-look="neo"].cluster rect,#diagram-erDiagram-81738214175344 [data-look="neo"].node polygon{stroke:url(#diagram-erDiagram-81738214175344-gradient);filter:drop-shadow( 0px 1px 2px rgba(0, 0, 0, 0.25));}#diagram-erDiagram-81738214175344 [data-look="neo"].node rect,#diagram-erDiagram-81738214175344 [data-look="neo"].node polygon,#diagram-erDiagram-81738214175344 [data-look="neo"].node path{stroke:url(#diagram-erDiagram-81738214175344-gradient);filter:drop-shadow( 0px 1px 2px rgba(0, 0, 0, 0.25));}#diagram-erDiagram-81738214175344 [data-look="neo"].node .neo-line path{stroke:hsl(0, 0%, 70%);filter:none;}#diagram-erDiagram-81738214175344 [data-look="neo"].node circle{stroke:url(#diagram-erDiagram-81738214175344-gradient);filter:drop-shadow( 0px 1px 2px rgba(0, 0, 0, 0.25));}#diagram-erDiagram-81738214175344 [data-look="neo"].node circle .state-start{fill:#000000;}#diagram-erDiagram-81738214175344 [data-look="neo"].statediagram-cluster rect{fill:#ffffff;stroke:url(#diagram-erDiagram-81738214175344-gradient);stroke-width:1px;}#diagram-erDiagram-81738214175344 [data-look="neo"].icon-shape .icon{fill:url(#diagram-erDiagram-81738214175344-gradient);filter:drop-shadow( 0px 1px 2px rgba(0, 0, 0, 0.25));}#diagram-erDiagram-81738214175344 [data-look="neo"].icon-shape .icon-neo path{stroke:url(#diagram-erDiagram-81738214175344-gradient);filter:drop-shadow( 0px 1px 2px rgba(0, 0, 0, 0.25));}#diagram-erDiagram-81738214175344 :root{--mermaid-font-family:"trebuchet ms",verdana,arial,sans-serif;}</style><g/><defs><marker orient="auto" markerHeight="240" markerWidth="190" refY="7" refX="0" id="MD_PARENT_START"><path d="M 18,7 L9,13 L1,7 L9,1 Z"/></marker></defs><defs><marker orient="auto" markerHeight="28" markerWidth="20" refY="7" refX="19" id="MD_PARENT_END"><path d="M 18,7 L9,13 L1,7 L9,1 Z"/></marker></defs><defs><marker orient="auto" markerHeight="18" markerWidth="18" refY="9" refX="0" id="ONLY_ONE_START"><path d="M9,0 L9,18 M15,0 L15,18" fill="none" stroke="gray"/></marker></defs><defs><marker orient="auto" markerHeight="18" markerWidth="18" refY="9" refX="18" id="ONLY_ONE_END"><path d="M3,0 L3,18 M9,0 L9,18" fill="none" stroke="gray"/></marker></defs><defs><marker orient="auto" markerHeight="18" markerWidth="30" refY="9" refX="0" id="ZERO_OR_ONE_START"><circle r="6" cy="9" cx="21" fill="white" stroke="gray"/><path d="M9,0 L9,18" fill="none" stroke="gray"/></marker></defs><defs><marker orient="auto" markerHeight="18" markerWidth="30" refY="9" refX="30" id="ZERO_OR_ONE_END"><circle r="6" cy="9" cx="9" fill="white" stroke="gray"/><path d="M21,0 L21,18" fill="none" stroke="gray"/></marker></defs><defs><marker orient="auto" markerHeight="36" markerWidth="45" refY="18" refX="18" id="ONE_OR_MORE_START"><path d="M0,18 Q 18,0 36,18 Q 18,36 0,18 M42,9 L42,27" fill="none" stroke="gray"/></marker></defs><defs><marker orient="auto" markerHeight="36" markerWidth="45" refY="18" refX="27" id="ONE_OR_MORE_END"><path d="M3,9 L3,27 M9,18 Q27,0 45,18 Q27,36 9,18" fill="none" stroke="gray"/></marker></defs><defs><marker orient="auto" markerHeight="36" markerWidth="57" refY="18" refX="18" id="ZERO_OR_MORE_START"><circle r="6" cy="18" cx="48" fill="white" stroke="gray"/><path d="M0,18 Q18,0 36,18 Q18,36 0,18" fill="none" stroke="gray"/></marker></defs><defs><marker orient="auto" markerHeight="36" markerWidth="57" refY="18" refX="39" id="ZERO_OR_MORE_END"><circle r="6" cy="18" cx="9" fill="white" stroke="gray"/><path d="M21,18 Q39,0 57,18 Q39,36 21,18" fill="none" stroke="gray"/></marker></defs><path marker-start="url(#ONE_OR_MORE_START)" marker-end="url(#ONE_OR_MORE_END)" stroke-dasharray="8,8" style="stroke: gray; fill: none;" d="M95.023,95L95.023,103.333C95.023,111.667,95.023,128.333,95.023,145C95.023,161.667,95.023,178.333,95.023,186.667L95.023,195" class="er relationshipLine"/><path marker-start="url(#ONLY_ONE_START)" marker-end="url(#ZERO_OR_MORE_END)" style="stroke: gray; fill: none;" d="M45.023,82.497L24.186,92.914C3.349,103.331,-38.326,124.166,-59.163,149.166C-80,174.167,-80,203.333,-80,232.5C-80,261.667,-80,290.833,-59.163,315.834C-38.326,340.834,3.349,361.669,24.186,372.086L45.023,382.503" class="er relationshipLine"/><path marker-start="url(#ONLY_ONE_START)" marker-end="url(#ZERO_OR_MORE_END)" style="stroke: gray; fill: none;" d="M145.023,76.942L174.194,88.285C203.365,99.628,261.706,122.314,290.876,141.99C320.047,161.667,320.047,178.333,320.047,186.667L320.047,195" class="er relationshipLine"/><path marker-start="url(#ONLY_ONE_START)" marker-end="url(#ZERO_OR_MORE_END)" style="stroke: gray; fill: none;" d="M95.023,270L95.023,278.333C95.023,286.667,95.023,303.333,95.023,320C95.023,336.667,95.023,353.333,95.023,361.667L95.023,370" class="er relationshipLine"/><path marker-start="url(#ONLY_ONE_START)" marker-end="url(#ONE_OR_MORE_END)" style="stroke: gray; fill: none;" d="M320.047,270L320.047,278.333C320.047,286.667,320.047,303.333,290.876,323.01C261.706,342.686,203.365,365.372,174.194,376.715L145.023,388.058" class="er relationshipLine"/><path marker-start="url(#ONLY_ONE_START)" marker-end="url(#ONE_OR_MORE_END)" style="stroke: gray; fill: none;" d="M95.023,445L95.023,453.333C95.023,461.667,95.023,478.333,124.104,497.852C153.185,517.371,211.347,539.743,240.428,550.928L269.509,562.114" class="er relationshipLine"/><path marker-start="url(#ONLY_ONE_START)" marker-end="url(#ONE_OR_MORE_END)" style="stroke: gray; fill: none;" d="M549.995,270L549.995,278.333C549.995,286.667,549.995,303.333,549.995,320C549.995,336.667,549.995,353.333,549.995,361.667L549.995,370" class="er relationshipLine"/><path marker-start="url(#ONLY_ONE_START)" marker-end="url(#ZERO_OR_MORE_END)" style="stroke: gray; fill: none;" d="M549.995,445L549.995,453.333C549.995,461.667,549.995,478.333,520.914,497.852C491.833,517.371,433.671,539.743,404.59,550.928L375.509,562.114" class="er relationshipLine"/><g transform="translate(45.0234375,20 )" id="entity-CUSTOMER-7c659eae-ee79-5f5d-acd7-c418f8ad1d67"><rect height="75" width="100" y="0" x="0" class="er entityBox"/><text transform="translate(50,37.5)" style="dominant-baseline: middle; text-anchor: middle; font-size: 12px;" y="0" x="0" id="text-entity-CUSTOMER-7c659eae-ee79-5f5d-acd7-c418f8ad1d67" class="er entityLabel">CUSTOMER</text></g><g transform="translate(20,195 )" id="entity-DELIVERYADDRESS-fd3face8-ad78-5943-8bd2-c15cc8ecb9c6"><rect height="75" width="150.046875" y="0" x="0" class="er entityBox"/><text transform="translate(75.0234375,37.5)" style="dominant-baseline: middle; text-anchor: middle; font-size: 12px;" y="0" x="0" id="text-entity-DELIVERYADDRESS-fd3face8-ad78-5943-8bd2-c15cc8ecb9c6" class="er entityLabel">DELIVERY-ADDRESS</text></g><g transform="translate(45.0234375,370 )" id="entity-ORDER-36941e20-eb1d-50a3-81c5-00079b43c24a"><rect height="75" width="100" y="0" x="0" class="er entityBox"/><text transform="translate(50,37.5)" style="dominant-baseline: middle; text-anchor: middle; font-size: 12px;" y="0" x="0" id="text-entity-ORDER-36941e20-eb1d-50a3-81c5-00079b43c24a" class="er entityLabel">ORDER</text></g><g transform="translate(270.046875,195 )" id="entity-INVOICE-befa8dd9-5ec7-5029-b058-27b05a6cdbcd"><rect height="75" width="100" y="0" x="0" class="er entityBox"/><text transform="translate(50,37.5)" style="dominant-baseline: middle; text-anchor: middle; font-size: 12px;" y="0" x="0" id="text-entity-INVOICE-befa8dd9-5ec7-5029-b058-27b05a6cdbcd" class="er entityLabel">INVOICE</text></g><g transform="translate(269.50927734375,545 )" id="entity-ORDERITEM-2f3e0a8a-1139-508c-8589-2d144a3ff50e"><rect height="75" width="106" y="0" x="0" class="er entityBox"/><text transform="translate(53,37.5)" style="dominant-baseline: middle; text-anchor: middle; font-size: 12px;" y="0" x="0" id="text-entity-ORDERITEM-2f3e0a8a-1139-508c-8589-2d144a3ff50e" class="er entityLabel">ORDER-ITEM</text></g><g transform="translate(470.046875,195 )" id="entity-PRODUCTCATEGORY-d522e853-470b-5a3e-b40c-3b174e1dded4"><rect height="75" width="159.896484375" y="0" x="0" class="er entityBox"/><text transform="translate(79.9482421875,37.5)" style="dominant-baseline: middle; text-anchor: middle; font-size: 12px;" y="0" x="0" id="text-entity-PRODUCTCATEGORY-d522e853-470b-5a3e-b40c-3b174e1dded4" class="er entityLabel">PRODUCT-CATEGORY</text></g><g transform="translate(499.9951171875,370 )" id="entity-PRODUCT-b14524a1-8e20-5805-a382-423fd1ec339f"><rect height="75" width="100" y="0" x="0" class="er entityBox"/><text transform="translate(50,37.5)" style="dominant-baseline: middle; text-anchor: middle; font-size: 12px;" y="0" x="0" id="text-entity-PRODUCT-b14524a1-8e20-5805-a382-423fd1ec339f" class="er entityLabel">PRODUCT</text></g><rect height="14" width="19.359375" y="138" x="85.34331512451172" class="er relationshipLabelBox"/><text style="text-anchor: middle; dominant-baseline: middle; font-size: 12px;" y="145" x="95.02300262451172" id="rel1" class="er relationshipLabel">has</text><rect height="14" width="34.6875" y="225.5000457763672" x="-97.34375" class="er relationshipLabelBox"/><text style="text-anchor: middle; dominant-baseline: middle; font-size: 12px;" y="232.5000457763672" x="-80" id="rel2" class="er relationshipLabel">places</text><rect height="14" width="46.361328125" y="112.32017517089844" x="225.60304260253906" class="er relationshipLabelBox"/><text style="text-anchor: middle; dominant-baseline: middle; font-size: 12px;" y="119.32017517089844" x="248.78370666503906" id="rel3" class="er relationshipLabel">liable for</text><rect height="14" width="44.6875" y="313" x="72.67925262451172" class="er relationshipLabelBox"/><text style="text-anchor: middle; dominant-baseline: middle; font-size: 12px;" y="320" x="95.02300262451172" id="rel4" class="er relationshipLabel">receives</text><rect height="14" width="35.34375" y="338.6798400878906" x="231.11183166503906" class="er relationshipLabelBox"/><text style="text-anchor: middle; dominant-baseline: middle; font-size: 12px;" y="345.6798400878906" x="248.78370666503906" id="rel5" class="er relationshipLabel">covers</text><rect height="14" width="44.03125" y="513.271728515625" x="144.0009307861328" class="er relationshipLabelBox"/><text style="text-anchor: middle; dominant-baseline: middle; font-size: 12px;" y="520.271728515625" x="166.0165557861328" id="rel6" class="er relationshipLabel">includes</text><rect height="14" width="44.703125" y="313" x="527.6434326171875" class="er relationshipLabelBox"/><text style="text-anchor: middle; dominant-baseline: middle; font-size: 12px;" y="320" x="549.9949951171875" id="rel7" class="er relationshipLabel">contains</text><rect height="14" width="54.361328125" y="513.271728515625" x="451.8208312988281" class="er relationshipLabelBox"/><text style="text-anchor: middle; dominant-baseline: middle; font-size: 12px;" y="520.271728515625" x="479.0014953613281" id="rel8" class="er relationshipLabel">ordered in</text></svg>