<svg aria-roledescription="timeline" role="graphics-document document" viewBox="0 -56 3190 687" style="max-width: 3190px;" xmlns="http://www.w3.org/2000/svg" width="100%" id="diagram-timeline-521738214186196"><style>#diagram-timeline-521738214186196{font-family:"trebuchet ms",verdana,arial,sans-serif;font-size:14px;fill:#333;}#diagram-timeline-521738214186196 .error-icon{fill:#ffffff;}#diagram-timeline-521738214186196 .error-text{fill:#000000;stroke:#000000;}#diagram-timeline-521738214186196 .edge-thickness-normal{stroke-width:1px;}#diagram-timeline-521738214186196 .edge-thickness-thick{stroke-width:3.5px;}#diagram-timeline-521738214186196 .edge-pattern-solid{stroke-dasharray:0;}#diagram-timeline-521738214186196 .edge-thickness-invisible{stroke-width:0;fill:none;}#diagram-timeline-521738214186196 .edge-pattern-dashed{stroke-dasharray:3;}#diagram-timeline-521738214186196 .edge-pattern-dotted{stroke-dasharray:2;}#diagram-timeline-521738214186196 .marker{fill:#000000;stroke:#000000;}#diagram-timeline-521738214186196 .marker.cross{stroke:#000000;}#diagram-timeline-521738214186196 svg{font-family:"trebuchet ms",verdana,arial,sans-serif;font-size:14px;}#diagram-timeline-521738214186196 p{margin:0;}#diagram-timeline-521738214186196 .edge{stroke-width:3;}#diagram-timeline-521738214186196 .section--1 rect,#diagram-timeline-521738214186196 .section--1 path,#diagram-timeline-521738214186196 .section--1 circle,#diagram-timeline-521738214186196 .section--1 path{fill:hsl(240, 90%, 71.0784313725%);}#diagram-timeline-521738214186196 .section--1 text{fill:#333;}#diagram-timeline-521738214186196 .node-icon--1{font-size:40px;color:#333;}#diagram-timeline-521738214186196 .section-edge--1{stroke:hsl(240, 90%, 71.0784313725%);}#diagram-timeline-521738214186196 .edge-depth--1{stroke-width:17;}#diagram-timeline-521738214186196 .section--1 line{stroke:rgb(140.1250000002, 140.1250000002, 7.375);stroke-width:3;}#diagram-timeline-521738214186196 .lineWrapper line{stroke:#333;}#diagram-timeline-521738214186196 .disabled,#diagram-timeline-521738214186196 .disabled circle,#diagram-timeline-521738214186196 .disabled text{fill:lightgray;}#diagram-timeline-521738214186196 .disabled text{fill:#efefef;}#diagram-timeline-521738214186196 .section-0 rect,#diagram-timeline-521738214186196 .section-0 path,#diagram-timeline-521738214186196 .section-0 circle,#diagram-timeline-521738214186196 .section-0 path{fill:hsl(240, 22.2222222222%, 67.9411764706%);}#diagram-timeline-521738214186196 .section-0 text{fill:#333;}#diagram-timeline-521738214186196 .node-icon-0{font-size:40px;color:#333;}#diagram-timeline-521738214186196 .section-edge-0{stroke:hsl(240, 22.2222222222%, 67.9411764706%);}#diagram-timeline-521738214186196 .edge-depth-0{stroke-width:14;}#diagram-timeline-521738214186196 .section-0 line{stroke:rgb(99.9166666666, 99.9166666666, 63.5833333333);stroke-width:3;}#diagram-timeline-521738214186196 .lineWrapper line{stroke:#333;}#diagram-timeline-521738214186196 .disabled,#diagram-timeline-521738214186196 .disabled circle,#diagram-timeline-521738214186196 .disabled text{fill:lightgray;}#diagram-timeline-521738214186196 .disabled text{fill:#efefef;}#diagram-timeline-521738214186196 .section-1 rect,#diagram-timeline-521738214186196 .section-1 path,#diagram-timeline-521738214186196 .section-1 circle,#diagram-timeline-521738214186196 .section-1 path{fill:hsl(60, 90%, 75%);}#diagram-timeline-521738214186196 .section-1 text{fill:#333;}#diagram-timeline-521738214186196 .node-icon-1{font-size:40px;color:#333;}#diagram-timeline-521738214186196 .section-edge-1{stroke:hsl(60, 90%, 75%);}#diagram-timeline-521738214186196 .edge-depth-1{stroke-width:11;}#diagram-timeline-521738214186196 .section-1 line{stroke:rgb(6.375, 6.375, 121.125);stroke-width:3;}#diagram-timeline-521738214186196 .lineWrapper line{stroke:#333;}#diagram-timeline-521738214186196 .disabled,#diagram-timeline-521738214186196 .disabled circle,#diagram-timeline-521738214186196 .disabled text{fill:lightgray;}#diagram-timeline-521738214186196 .disabled text{fill:#efefef;}#diagram-timeline-521738214186196 .section-2 rect,#diagram-timeline-521738214186196 .section-2 path,#diagram-timeline-521738214186196 .section-2 circle,#diagram-timeline-521738214186196 .section-2 path{fill:hsl(270, 90%, 71.0784313725%);}#diagram-timeline-521738214186196 .section-2 text{fill:#333;}#diagram-timeline-521738214186196 .node-icon-2{font-size:40px;color:#333;}#diagram-timeline-521738214186196 .section-edge-2{stroke:hsl(270, 90%, 71.0784313725%);}#diagram-timeline-521738214186196 .edge-depth-2{stroke-width:8;}#diagram-timeline-521738214186196 .section-2 line{stroke:rgb(73.7500000001, 140.1250000002, 7.375);stroke-width:3;}#diagram-timeline-521738214186196 .lineWrapper line{stroke:#333;}#diagram-timeline-521738214186196 .disabled,#diagram-timeline-521738214186196 .disabled circle,#diagram-timeline-521738214186196 .disabled text{fill:lightgray;}#diagram-timeline-521738214186196 .disabled text{fill:#efefef;}#diagram-timeline-521738214186196 .section-3 rect,#diagram-timeline-521738214186196 .section-3 path,#diagram-timeline-521738214186196 .section-3 circle,#diagram-timeline-521738214186196 .section-3 path{fill:hsl(300, 90%, 71.0784313725%);}#diagram-timeline-521738214186196 .section-3 text{fill:#333;}#diagram-timeline-521738214186196 .node-icon-3{font-size:40px;color:#333;}#diagram-timeline-521738214186196 .section-edge-3{stroke:hsl(300, 90%, 71.0784313725%);}#diagram-timeline-521738214186196 .edge-depth-3{stroke-width:5;}#diagram-timeline-521738214186196 .section-3 line{stroke:rgb(7.375, 140.1250000002, 7.375);stroke-width:3;}#diagram-timeline-521738214186196 .lineWrapper line{stroke:#333;}#diagram-timeline-521738214186196 .disabled,#diagram-timeline-521738214186196 .disabled circle,#diagram-timeline-521738214186196 .disabled text{fill:lightgray;}#diagram-timeline-521738214186196 .disabled text{fill:#efefef;}#diagram-timeline-521738214186196 .section-4 rect,#diagram-timeline-521738214186196 .section-4 path,#diagram-timeline-521738214186196 .section-4 circle,#diagram-timeline-521738214186196 .section-4 path{fill:hsl(330, 90%, 71.0784313725%);}#diagram-timeline-521738214186196 .section-4 text{fill:#333;}#diagram-timeline-521738214186196 .node-icon-4{font-size:40px;color:#333;}#diagram-timeline-521738214186196 .section-edge-4{stroke:hsl(330, 90%, 71.0784313725%);}#diagram-timeline-521738214186196 .edge-depth-4{stroke-width:2;}#diagram-timeline-521738214186196 .section-4 line{stroke:rgb(7.375, 140.1250000002, 73.7500000001);stroke-width:3;}#diagram-timeline-521738214186196 .lineWrapper line{stroke:#333;}#diagram-timeline-521738214186196 .disabled,#diagram-timeline-521738214186196 .disabled circle,#diagram-timeline-521738214186196 .disabled text{fill:lightgray;}#diagram-timeline-521738214186196 .disabled text{fill:#efefef;}#diagram-timeline-521738214186196 .section-5 rect,#diagram-timeline-521738214186196 .section-5 path,#diagram-timeline-521738214186196 .section-5 circle,#diagram-timeline-521738214186196 .section-5 path{fill:hsl(0, 90%, 71.0784313725%);}#diagram-timeline-521738214186196 .section-5 text{fill:#333;}#diagram-timeline-521738214186196 .node-icon-5{font-size:40px;color:#333;}#diagram-timeline-521738214186196 .section-edge-5{stroke:hsl(0, 90%, 71.0784313725%);}#diagram-timeline-521738214186196 .edge-depth-5{stroke-width:-1;}#diagram-timeline-521738214186196 .section-5 line{stroke:rgb(7.375, 140.1250000002, 140.1250000002);stroke-width:3;}#diagram-timeline-521738214186196 .lineWrapper line{stroke:#333;}#diagram-timeline-521738214186196 .disabled,#diagram-timeline-521738214186196 .disabled circle,#diagram-timeline-521738214186196 .disabled text{fill:lightgray;}#diagram-timeline-521738214186196 .disabled text{fill:#efefef;}#diagram-timeline-521738214186196 .section-6 rect,#diagram-timeline-521738214186196 .section-6 path,#diagram-timeline-521738214186196 .section-6 circle,#diagram-timeline-521738214186196 .section-6 path{fill:hsl(30, 90%, 71.0784313725%);}#diagram-timeline-521738214186196 .section-6 text{fill:#333;}#diagram-timeline-521738214186196 .node-icon-6{font-size:40px;color:#333;}#diagram-timeline-521738214186196 .section-edge-6{stroke:hsl(30, 90%, 71.0784313725%);}#diagram-timeline-521738214186196 .edge-depth-6{stroke-width:-4;}#diagram-timeline-521738214186196 .section-6 line{stroke:rgb(7.375, 73.7500000001, 140.1250000002);stroke-width:3;}#diagram-timeline-521738214186196 .lineWrapper line{stroke:#333;}#diagram-timeline-521738214186196 .disabled,#diagram-timeline-521738214186196 .disabled circle,#diagram-timeline-521738214186196 .disabled text{fill:lightgray;}#diagram-timeline-521738214186196 .disabled text{fill:#efefef;}#diagram-timeline-521738214186196 .section-7 rect,#diagram-timeline-521738214186196 .section-7 path,#diagram-timeline-521738214186196 .section-7 circle,#diagram-timeline-521738214186196 .section-7 path{fill:hsl(90, 90%, 75%);}#diagram-timeline-521738214186196 .section-7 text{fill:#333;}#diagram-timeline-521738214186196 .node-icon-7{font-size:40px;color:#333;}#diagram-timeline-521738214186196 .section-edge-7{stroke:hsl(90, 90%, 75%);}#diagram-timeline-521738214186196 .edge-depth-7{stroke-width:-7;}#diagram-timeline-521738214186196 .section-7 line{stroke:rgb(63.75, 6.375, 121.125);stroke-width:3;}#diagram-timeline-521738214186196 .lineWrapper line{stroke:#333;}#diagram-timeline-521738214186196 .disabled,#diagram-timeline-521738214186196 .disabled circle,#diagram-timeline-521738214186196 .disabled text{fill:lightgray;}#diagram-timeline-521738214186196 .disabled text{fill:#efefef;}#diagram-timeline-521738214186196 .section-8 rect,#diagram-timeline-521738214186196 .section-8 path,#diagram-timeline-521738214186196 .section-8 circle,#diagram-timeline-521738214186196 .section-8 path{fill:hsl(150, 90%, 71.0784313725%);}#diagram-timeline-521738214186196 .section-8 text{fill:#333;}#diagram-timeline-521738214186196 .node-icon-8{font-size:40px;color:#333;}#diagram-timeline-521738214186196 .section-edge-8{stroke:hsl(150, 90%, 71.0784313725%);}#diagram-timeline-521738214186196 .edge-depth-8{stroke-width:-10;}#diagram-timeline-521738214186196 .section-8 line{stroke:rgb(140.1250000002, 7.375, 73.7500000001);stroke-width:3;}#diagram-timeline-521738214186196 .lineWrapper line{stroke:#333;}#diagram-timeline-521738214186196 .disabled,#diagram-timeline-521738214186196 .disabled circle,#diagram-timeline-521738214186196 .disabled text{fill:lightgray;}#diagram-timeline-521738214186196 .disabled text{fill:#efefef;}#diagram-timeline-521738214186196 .section-9 rect,#diagram-timeline-521738214186196 .section-9 path,#diagram-timeline-521738214186196 .section-9 circle,#diagram-timeline-521738214186196 .section-9 path{fill:hsl(180, 90%, 71.0784313725%);}#diagram-timeline-521738214186196 .section-9 text{fill:#333;}#diagram-timeline-521738214186196 .node-icon-9{font-size:40px;color:#333;}#diagram-timeline-521738214186196 .section-edge-9{stroke:hsl(180, 90%, 71.0784313725%);}#diagram-timeline-521738214186196 .edge-depth-9{stroke-width:-13;}#diagram-timeline-521738214186196 .section-9 line{stroke:rgb(140.1250000002, 7.375, 7.375);stroke-width:3;}#diagram-timeline-521738214186196 .lineWrapper line{stroke:#333;}#diagram-timeline-521738214186196 .disabled,#diagram-timeline-521738214186196 .disabled circle,#diagram-timeline-521738214186196 .disabled text{fill:lightgray;}#diagram-timeline-521738214186196 .disabled text{fill:#efefef;}#diagram-timeline-521738214186196 .section-10 rect,#diagram-timeline-521738214186196 .section-10 path,#diagram-timeline-521738214186196 .section-10 circle,#diagram-timeline-521738214186196 .section-10 path{fill:hsl(210, 90%, 71.0784313725%);}#diagram-timeline-521738214186196 .section-10 text{fill:#333;}#diagram-timeline-521738214186196 .node-icon-10{font-size:40px;color:#333;}#diagram-timeline-521738214186196 .section-edge-10{stroke:hsl(210, 90%, 71.0784313725%);}#diagram-timeline-521738214186196 .edge-depth-10{stroke-width:-16;}#diagram-timeline-521738214186196 .section-10 line{stroke:rgb(140.1250000002, 73.7500000001, 7.375);stroke-width:3;}#diagram-timeline-521738214186196 .lineWrapper line{stroke:#333;}#diagram-timeline-521738214186196 .disabled,#diagram-timeline-521738214186196 .disabled circle,#diagram-timeline-521738214186196 .disabled text{fill:lightgray;}#diagram-timeline-521738214186196 .disabled text{fill:#efefef;}#diagram-timeline-521738214186196 .section-root rect,#diagram-timeline-521738214186196 .section-root path,#diagram-timeline-521738214186196 .section-root circle{fill:hsl(240, 90%, 71.0784313725%);}#diagram-timeline-521738214186196 .section-root text{fill:#333;}#diagram-timeline-521738214186196 .icon-container{height:100%;display:flex;justify-content:center;align-items:center;}#diagram-timeline-521738214186196 .edge{fill:none;}#diagram-timeline-521738214186196 .eventWrapper{filter:brightness(120%);}#diagram-timeline-521738214186196 .node .neo-node{stroke:#000000;}#diagram-timeline-521738214186196 [data-look="neo"].node rect,#diagram-timeline-521738214186196 [data-look="neo"].cluster rect,#diagram-timeline-521738214186196 [data-look="neo"].node polygon{stroke:url(#diagram-timeline-521738214186196-gradient);filter:drop-shadow( 0px 1px 2px rgba(0, 0, 0, 0.25));}#diagram-timeline-521738214186196 [data-look="neo"].node rect,#diagram-timeline-521738214186196 [data-look="neo"].node polygon,#diagram-timeline-521738214186196 [data-look="neo"].node path{stroke:url(#diagram-timeline-521738214186196-gradient);filter:drop-shadow( 0px 1px 2px rgba(0, 0, 0, 0.25));}#diagram-timeline-521738214186196 [data-look="neo"].node .neo-line path{stroke:hsl(0, 0%, 70%);filter:none;}#diagram-timeline-521738214186196 [data-look="neo"].node circle{stroke:url(#diagram-timeline-521738214186196-gradient);filter:drop-shadow( 0px 1px 2px rgba(0, 0, 0, 0.25));}#diagram-timeline-521738214186196 [data-look="neo"].node circle .state-start{fill:#000000;}#diagram-timeline-521738214186196 [data-look="neo"].statediagram-cluster rect{fill:#ffffff;stroke:url(#diagram-timeline-521738214186196-gradient);stroke-width:1px;}#diagram-timeline-521738214186196 [data-look="neo"].icon-shape .icon{fill:url(#diagram-timeline-521738214186196-gradient);filter:drop-shadow( 0px 1px 2px rgba(0, 0, 0, 0.25));}#diagram-timeline-521738214186196 [data-look="neo"].icon-shape .icon-neo path{stroke:url(#diagram-timeline-521738214186196-gradient);filter:drop-shadow( 0px 1px 2px rgba(0, 0, 0, 0.25));}#diagram-timeline-521738214186196 :root{--mermaid-font-family:"trebuchet ms",verdana,arial,sans-serif;}</style><g/><g/><defs><marker orient="auto" markerHeight="4" markerWidth="6" refY="2" refX="5" id="arrowhead"><path d="M 0,0 V 4 L6,2 Z"/></marker></defs><g transform="translate(100, 50)"><g class="timeline-node section--1"><g><path d="M0 59.8 v-54.8 q0,-5 5,-5 h580 q5,0 5,5 v59.8 H0 Z" class="node-bkg node-undefined" id="node-undefined"/><line y2="64.8" x2="590" y1="64.8" x1="0" class="node-line--1"/></g><g transform="translate(295, 10)"><text text-anchor="middle" dominant-baseline="middle" alignment-baseline="middle" dy="1em"><tspan dy="1em" x="0">January   -   March</tspan></text></g></g></g><g transform="translate(100, 164.8)" class="taskWrapper"><g class="timeline-node section--1"><g><path d="M0 59.8 v-54.8 q0,-5 5,-5 h180 q5,0 5,5 v59.8 H0 Z" class="node-bkg node-undefined" id="node-undefined"/><line y2="64.8" x2="190" y1="64.8" x1="0" class="node-line--1"/></g><g transform="translate(95, 10)"><text text-anchor="middle" dominant-baseline="middle" alignment-baseline="middle" dy="1em"><tspan dy="1em" x="0">Research</tspan></text></g></g></g><g class="lineWrapper"><line stroke-dasharray="5,5" marker-end="url(#arrowhead)" stroke="black" stroke-width="2" y2="581.0000076293945" x2="195" y1="229.60000000000002" x1="195"/></g><g transform="translate(100, 364.8)" class="eventWrapper"><g class="timeline-node section--1"><g><path d="M0 55.2000015258789 v-50.2000015258789 q0,-5 5,-5 h180 q5,0 5,5 v55.2000015258789 H0 Z" class="node-bkg node-undefined" id="node-undefined"/><line y2="60.2000015258789" x2="190" y1="60.2000015258789" x1="0" class="node-line--1"/></g><g transform="translate(95, 10)"><text text-anchor="middle" dominant-baseline="middle" alignment-baseline="middle" dy="1em"><tspan dy="1em" x="0">Begin   working   on   a</tspan><tspan dy="1.1em" x="0">prototype</tspan></text></g></g></g><g transform="translate(300, 164.8)" class="taskWrapper"><g class="timeline-node section--1"><g><path d="M0 59.8 v-54.8 q0,-5 5,-5 h180 q5,0 5,5 v59.8 H0 Z" class="node-bkg node-undefined" id="node-undefined"/><line y2="64.8" x2="190" y1="64.8" x1="0" class="node-line--1"/></g><g transform="translate(95, 10)"><text text-anchor="middle" dominant-baseline="middle" alignment-baseline="middle" dy="1em"><tspan dy="1em" x="0">Legal</tspan></text></g></g></g><g class="lineWrapper"><line stroke-dasharray="5,5" marker-end="url(#arrowhead)" stroke="black" stroke-width="2" y2="581.0000076293945" x2="395" y1="229.60000000000002" x1="395"/></g><g transform="translate(300, 364.8)" class="eventWrapper"><g class="timeline-node section--1"><g><path d="M0 70.60000305175781 v-65.60000305175781 q0,-5 5,-5 h180 q5,0 5,5 v70.60000305175781 H0 Z" class="node-bkg node-undefined" id="node-undefined"/><line y2="75.60000305175781" x2="190" y1="75.60000305175781" x1="0" class="node-line--1"/></g><g transform="translate(95, 10)"><text text-anchor="middle" dominant-baseline="middle" alignment-baseline="middle" dy="1em"><tspan dy="1em" x="0">Research   patents   and   if</tspan><tspan dy="1.1em" x="0">other   companies   have</tspan><tspan dy="1.1em" x="0">similar   ideas</tspan></text></g></g></g><g transform="translate(500, 164.8)" class="taskWrapper"><g class="timeline-node section--1"><g><path d="M0 59.8 v-54.8 q0,-5 5,-5 h180 q5,0 5,5 v59.8 H0 Z" class="node-bkg node-undefined" id="node-undefined"/><line y2="64.8" x2="190" y1="64.8" x1="0" class="node-line--1"/></g><g transform="translate(95, 10)"><text text-anchor="middle" dominant-baseline="middle" alignment-baseline="middle" dy="1em"><tspan dy="1em" x="0">Marketing</tspan></text></g></g></g><g class="lineWrapper"><line stroke-dasharray="5,5" marker-end="url(#arrowhead)" stroke="black" stroke-width="2" y2="581.0000076293945" x2="595" y1="229.60000000000002" x1="595"/></g><g transform="translate(500, 364.8)" class="eventWrapper"><g class="timeline-node section--1"><g><path d="M0 55.2000015258789 v-50.2000015258789 q0,-5 5,-5 h180 q5,0 5,5 v55.2000015258789 H0 Z" class="node-bkg node-undefined" id="node-undefined"/><line y2="60.2000015258789" x2="190" y1="60.2000015258789" x1="0" class="node-line--1"/></g><g transform="translate(95, 10)"><text text-anchor="middle" dominant-baseline="middle" alignment-baseline="middle" dy="1em"><tspan dy="1em" x="0">Probe   the   market   and</tspan><tspan dy="1.1em" x="0">look   for   an   opening</tspan></text></g></g></g><g transform="translate(700, 50)"><g class="timeline-node section-0"><g><path d="M0 59.8 v-54.8 q0,-5 5,-5 h580 q5,0 5,5 v59.8 H0 Z" class="node-bkg node-undefined" id="node-undefined"/><line y2="64.8" x2="590" y1="64.8" x1="0" class="node-line-0"/></g><g transform="translate(295, 10)"><text text-anchor="middle" dominant-baseline="middle" alignment-baseline="middle" dy="1em"><tspan dy="1em" x="0">April   -   June</tspan></text></g></g></g><g transform="translate(700, 164.8)" class="taskWrapper"><g class="timeline-node section-0"><g><path d="M0 59.8 v-54.8 q0,-5 5,-5 h180 q5,0 5,5 v59.8 H0 Z" class="node-bkg node-undefined" id="node-undefined"/><line y2="64.8" x2="190" y1="64.8" x1="0" class="node-line-0"/></g><g transform="translate(95, 10)"><text text-anchor="middle" dominant-baseline="middle" alignment-baseline="middle" dy="1em"><tspan dy="1em" x="0">Research</tspan></text></g></g></g><g class="lineWrapper"><line stroke-dasharray="5,5" marker-end="url(#arrowhead)" stroke="black" stroke-width="2" y2="581.0000076293945" x2="795" y1="229.60000000000002" x1="795"/></g><g transform="translate(700, 364.8)" class="eventWrapper"><g class="timeline-node section-0"><g><path d="M0 70.60000305175781 v-65.60000305175781 q0,-5 5,-5 h180 q5,0 5,5 v70.60000305175781 H0 Z" class="node-bkg node-undefined" id="node-undefined"/><line y2="75.60000305175781" x2="190" y1="75.60000305175781" x1="0" class="node-line-0"/></g><g transform="translate(95, 10)"><text text-anchor="middle" dominant-baseline="middle" alignment-baseline="middle" dy="1em"><tspan dy="1em" x="0">Test   prototype   and</tspan><tspan dy="1.1em" x="0">investigate   ways   of</tspan><tspan dy="1.1em" x="0">improving   it</tspan></text></g></g></g><g transform="translate(900, 164.8)" class="taskWrapper"><g class="timeline-node section-0"><g><path d="M0 59.8 v-54.8 q0,-5 5,-5 h180 q5,0 5,5 v59.8 H0 Z" class="node-bkg node-undefined" id="node-undefined"/><line y2="64.8" x2="190" y1="64.8" x1="0" class="node-line-0"/></g><g transform="translate(95, 10)"><text text-anchor="middle" dominant-baseline="middle" alignment-baseline="middle" dy="1em"><tspan dy="1em" x="0">Legal</tspan></text></g></g></g><g class="lineWrapper"><line stroke-dasharray="5,5" marker-end="url(#arrowhead)" stroke="black" stroke-width="2" y2="581.0000076293945" x2="995" y1="229.60000000000002" x1="995"/></g><g transform="translate(900, 364.8)" class="eventWrapper"><g class="timeline-node section-0"><g><path d="M0 55.2000015258789 v-50.2000015258789 q0,-5 5,-5 h180 q5,0 5,5 v55.2000015258789 H0 Z" class="node-bkg node-undefined" id="node-undefined"/><line y2="60.2000015258789" x2="190" y1="60.2000015258789" x1="0" class="node-line-0"/></g><g transform="translate(95, 10)"><text text-anchor="middle" dominant-baseline="middle" alignment-baseline="middle" dy="1em"><tspan dy="1em" x="0">Begin   working   on   filing</tspan><tspan dy="1.1em" x="0">for   a   patent</tspan></text></g></g></g><g transform="translate(1100, 164.8)" class="taskWrapper"><g class="timeline-node section-0"><g><path d="M0 59.8 v-54.8 q0,-5 5,-5 h180 q5,0 5,5 v59.8 H0 Z" class="node-bkg node-undefined" id="node-undefined"/><line y2="64.8" x2="190" y1="64.8" x1="0" class="node-line-0"/></g><g transform="translate(95, 10)"><text text-anchor="middle" dominant-baseline="middle" alignment-baseline="middle" dy="1em"><tspan dy="1em" x="0">Marketing</tspan></text></g></g></g><g class="lineWrapper"><line stroke-dasharray="5,5" marker-end="url(#arrowhead)" stroke="black" stroke-width="2" y2="581.0000076293945" x2="1195" y1="229.60000000000002" x1="1195"/></g><g transform="translate(1100, 364.8)" class="eventWrapper"><g class="timeline-node section-0"><g><path d="M0 70.60000305175781 v-65.60000305175781 q0,-5 5,-5 h180 q5,0 5,5 v70.60000305175781 H0 Z" class="node-bkg node-undefined" id="node-undefined"/><line y2="75.60000305175781" x2="190" y1="75.60000305175781" x1="0" class="node-line-0"/></g><g transform="translate(95, 10)"><text text-anchor="middle" dominant-baseline="middle" alignment-baseline="middle" dy="1em"><tspan dy="1em" x="0">Small   scale   marketing</tspan><tspan dy="1.1em" x="0">campaign,   look   for</tspan><tspan dy="1.1em" x="0">testers</tspan></text></g></g></g><g transform="translate(1100, 450.40000305175784)" class="eventWrapper"><g class="timeline-node section-0"><g><path d="M0 70.60000305175781 v-65.60000305175781 q0,-5 5,-5 h180 q5,0 5,5 v70.60000305175781 H0 Z" class="node-bkg node-undefined" id="node-undefined"/><line y2="75.60000305175781" x2="190" y1="75.60000305175781" x1="0" class="node-line-0"/></g><g transform="translate(95, 10)"><text text-anchor="middle" dominant-baseline="middle" alignment-baseline="middle" dy="1em"><tspan dy="1em" x="0">Identify   tester   group</tspan><tspan dy="1.1em" x="0">and   connect   to   Product</tspan><tspan dy="1.1em" x="0">Manager</tspan></text></g></g></g><g transform="translate(1300, 50)"><g class="timeline-node section-1"><g><path d="M0 59.8 v-54.8 q0,-5 5,-5 h180 q5,0 5,5 v59.8 H0 Z" class="node-bkg node-undefined" id="node-undefined"/><line y2="64.8" x2="190" y1="64.8" x1="0" class="node-line-1"/></g><g transform="translate(95, 10)"><text text-anchor="middle" dominant-baseline="middle" alignment-baseline="middle" dy="1em"><tspan dy="1em" x="0">July</tspan></text></g></g></g><g transform="translate(1300, 164.8)" class="taskWrapper"><g class="timeline-node section-1"><g><path d="M0 59.8 v-54.8 q0,-5 5,-5 h180 q5,0 5,5 v59.8 H0 Z" class="node-bkg node-undefined" id="node-undefined"/><line y2="64.8" x2="190" y1="64.8" x1="0" class="node-line-1"/></g><g transform="translate(95, 10)"><text text-anchor="middle" dominant-baseline="middle" alignment-baseline="middle" dy="1em"><tspan dy="1em" x="0">Vacation</tspan></text></g></g></g><g class="lineWrapper"><line stroke-dasharray="5,5" marker-end="url(#arrowhead)" stroke="black" stroke-width="2" y2="581.0000076293945" x2="1395" y1="229.60000000000002" x1="1395"/></g><g transform="translate(1300, 364.8)" class="eventWrapper"><g class="timeline-node section-1"><g><path d="M0 55.2000015258789 v-50.2000015258789 q0,-5 5,-5 h180 q5,0 5,5 v55.2000015258789 H0 Z" class="node-bkg node-undefined" id="node-undefined"/><line y2="60.2000015258789" x2="190" y1="60.2000015258789" x1="0" class="node-line-1"/></g><g transform="translate(95, 10)"><text text-anchor="middle" dominant-baseline="middle" alignment-baseline="middle" dy="1em"><tspan dy="1em" x="0">Only   maintenance   work</tspan><tspan dy="1.1em" x="0">conducted</tspan></text></g></g></g><g transform="translate(1500, 50)"><g class="timeline-node section-2"><g><path d="M0 59.8 v-54.8 q0,-5 5,-5 h780 q5,0 5,5 v59.8 H0 Z" class="node-bkg node-undefined" id="node-undefined"/><line y2="64.8" x2="790" y1="64.8" x1="0" class="node-line-2"/></g><g transform="translate(395, 10)"><text text-anchor="middle" dominant-baseline="middle" alignment-baseline="middle" dy="1em"><tspan dy="1em" x="0">August   -   September</tspan></text></g></g></g><g transform="translate(1500, 164.8)" class="taskWrapper"><g class="timeline-node section-2"><g><path d="M0 59.8 v-54.8 q0,-5 5,-5 h180 q5,0 5,5 v59.8 H0 Z" class="node-bkg node-undefined" id="node-undefined"/><line y2="64.8" x2="190" y1="64.8" x1="0" class="node-line-2"/></g><g transform="translate(95, 10)"><text text-anchor="middle" dominant-baseline="middle" alignment-baseline="middle" dy="1em"><tspan dy="1em" x="0">Research</tspan></text></g></g></g><g class="lineWrapper"><line stroke-dasharray="5,5" marker-end="url(#arrowhead)" stroke="black" stroke-width="2" y2="581.0000076293945" x2="1595" y1="229.60000000000002" x1="1595"/></g><g transform="translate(1500, 364.8)" class="eventWrapper"><g class="timeline-node section-2"><g><path d="M0 45 v-40 q0,-5 5,-5 h180 q5,0 5,5 v45 H0 Z" class="node-bkg node-undefined" id="node-undefined"/><line y2="50" x2="190" y1="50" x1="0" class="node-line-2"/></g><g transform="translate(95, 10)"><text text-anchor="middle" dominant-baseline="middle" alignment-baseline="middle" dy="1em"><tspan dy="1em" x="0">Move   into   beta-testing</tspan></text></g></g></g><g transform="translate(1500, 424.8)" class="eventWrapper"><g class="timeline-node section-2"><g><path d="M0 45 v-40 q0,-5 5,-5 h180 q5,0 5,5 v45 H0 Z" class="node-bkg node-undefined" id="node-undefined"/><line y2="50" x2="190" y1="50" x1="0" class="node-line-2"/></g><g transform="translate(95, 10)"><text text-anchor="middle" dominant-baseline="middle" alignment-baseline="middle" dy="1em"><tspan dy="1em" x="0">Record   learnings</tspan></text></g></g></g><g transform="translate(1700, 164.8)" class="taskWrapper"><g class="timeline-node section-2"><g><path d="M0 59.8 v-54.8 q0,-5 5,-5 h180 q5,0 5,5 v59.8 H0 Z" class="node-bkg node-undefined" id="node-undefined"/><line y2="64.8" x2="190" y1="64.8" x1="0" class="node-line-2"/></g><g transform="translate(95, 10)"><text text-anchor="middle" dominant-baseline="middle" alignment-baseline="middle" dy="1em"><tspan dy="1em" x="0">Legal</tspan></text></g></g></g><g class="lineWrapper"><line stroke-dasharray="5,5" marker-end="url(#arrowhead)" stroke="black" stroke-width="2" y2="581.0000076293945" x2="1795" y1="229.60000000000002" x1="1795"/></g><g transform="translate(1700, 364.8)" class="eventWrapper"><g class="timeline-node section-2"><g><path d="M0 55.2000015258789 v-50.2000015258789 q0,-5 5,-5 h180 q5,0 5,5 v55.2000015258789 H0 Z" class="node-bkg node-undefined" id="node-undefined"/><line y2="60.2000015258789" x2="190" y1="60.2000015258789" x1="0" class="node-line-2"/></g><g transform="translate(95, 10)"><text text-anchor="middle" dominant-baseline="middle" alignment-baseline="middle" dy="1em"><tspan dy="1em" x="0">Finish   patent   filing   and</tspan><tspan dy="1.1em" x="0">wait   for   approval</tspan></text></g></g></g><g transform="translate(1900, 164.8)" class="taskWrapper"><g class="timeline-node section-2"><g><path d="M0 59.8 v-54.8 q0,-5 5,-5 h180 q5,0 5,5 v59.8 H0 Z" class="node-bkg node-undefined" id="node-undefined"/><line y2="64.8" x2="190" y1="64.8" x1="0" class="node-line-2"/></g><g transform="translate(95, 10)"><text text-anchor="middle" dominant-baseline="middle" alignment-baseline="middle" dy="1em"><tspan dy="1em" x="0">Marketing</tspan></text></g></g></g><g class="lineWrapper"><line stroke-dasharray="5,5" marker-end="url(#arrowhead)" stroke="black" stroke-width="2" y2="581.0000076293945" x2="1995" y1="229.60000000000002" x1="1995"/></g><g transform="translate(1900, 364.8)" class="eventWrapper"><g class="timeline-node section-2"><g><path d="M0 86.00000457763672 v-81.00000457763672 q0,-5 5,-5 h180 q5,0 5,5 v86.00000457763672 H0 Z" class="node-bkg node-undefined" id="node-undefined"/><line y2="91.00000457763672" x2="190" y1="91.00000457763672" x1="0" class="node-line-2"/></g><g transform="translate(95, 10)"><text text-anchor="middle" dominant-baseline="middle" alignment-baseline="middle" dy="1em"><tspan dy="1em" x="0">Launch   a   large   scale</tspan><tspan dy="1.1em" x="0">marketing   campaign   to</tspan><tspan dy="1.1em" x="0">gauge   purchasing</tspan><tspan dy="1.1em" x="0">interest</tspan></text></g></g></g><g transform="translate(2100, 164.8)" class="taskWrapper"><g class="timeline-node section-2"><g><path d="M0 59.8 v-54.8 q0,-5 5,-5 h180 q5,0 5,5 v59.8 H0 Z" class="node-bkg node-undefined" id="node-undefined"/><line y2="64.8" x2="190" y1="64.8" x1="0" class="node-line-2"/></g><g transform="translate(95, 10)"><text text-anchor="middle" dominant-baseline="middle" alignment-baseline="middle" dy="1em"><tspan dy="1em" x="0">Production</tspan></text></g></g></g><g class="lineWrapper"><line stroke-dasharray="5,5" marker-end="url(#arrowhead)" stroke="black" stroke-width="2" y2="581.0000076293945" x2="2195" y1="229.60000000000002" x1="2195"/></g><g transform="translate(2100, 364.8)" class="eventWrapper"><g class="timeline-node section-2"><g><path d="M0 86.00000457763672 v-81.00000457763672 q0,-5 5,-5 h180 q5,0 5,5 v86.00000457763672 H0 Z" class="node-bkg node-undefined" id="node-undefined"/><line y2="91.00000457763672" x2="190" y1="91.00000457763672" x1="0" class="node-line-2"/></g><g transform="translate(95, 10)"><text text-anchor="middle" dominant-baseline="middle" alignment-baseline="middle" dy="1em"><tspan dy="1em" x="0">Take   beta   tester</tspan><tspan dy="1.1em" x="0">feedback   and</tspan><tspan dy="1.1em" x="0">implement</tspan><tspan dy="1.1em" x="0">improvements</tspan></text></g></g></g><g transform="translate(2100, 465.80000457763674)" class="eventWrapper"><g class="timeline-node section-2"><g><path d="M0 70.60000305175781 v-65.60000305175781 q0,-5 5,-5 h180 q5,0 5,5 v70.60000305175781 H0 Z" class="node-bkg node-undefined" id="node-undefined"/><line y2="75.60000305175781" x2="190" y1="75.60000305175781" x1="0" class="node-line-2"/></g><g transform="translate(95, 10)"><text text-anchor="middle" dominant-baseline="middle" alignment-baseline="middle" dy="1em"><tspan dy="1em" x="0">Begin   preparing   for</tspan><tspan dy="1.1em" x="0">mass   production   of   the</tspan><tspan dy="1.1em" x="0">product</tspan></text></g></g></g><g transform="translate(2300, 50)"><g class="timeline-node section-3"><g><path d="M0 59.8 v-54.8 q0,-5 5,-5 h780 q5,0 5,5 v59.8 H0 Z" class="node-bkg node-undefined" id="node-undefined"/><line y2="64.8" x2="790" y1="64.8" x1="0" class="node-line-3"/></g><g transform="translate(395, 10)"><text text-anchor="middle" dominant-baseline="middle" alignment-baseline="middle" dy="1em"><tspan dy="1em" x="0">October   -   December</tspan></text></g></g></g><g transform="translate(2300, 164.8)" class="taskWrapper"><g class="timeline-node section-3"><g><path d="M0 59.8 v-54.8 q0,-5 5,-5 h180 q5,0 5,5 v59.8 H0 Z" class="node-bkg node-undefined" id="node-undefined"/><line y2="64.8" x2="190" y1="64.8" x1="0" class="node-line-3"/></g><g transform="translate(95, 10)"><text text-anchor="middle" dominant-baseline="middle" alignment-baseline="middle" dy="1em"><tspan dy="1em" x="0">Research</tspan></text></g></g></g><g class="lineWrapper"><line stroke-dasharray="5,5" marker-end="url(#arrowhead)" stroke="black" stroke-width="2" y2="581.0000076293945" x2="2395" y1="229.60000000000002" x1="2395"/></g><g transform="translate(2300, 364.8)" class="eventWrapper"><g class="timeline-node section-3"><g><path d="M0 86.00000457763672 v-81.00000457763672 q0,-5 5,-5 h180 q5,0 5,5 v86.00000457763672 H0 Z" class="node-bkg node-undefined" id="node-undefined"/><line y2="91.00000457763672" x2="190" y1="91.00000457763672" x1="0" class="node-line-3"/></g><g transform="translate(95, 10)"><text text-anchor="middle" dominant-baseline="middle" alignment-baseline="middle" dy="1em"><tspan dy="1em" x="0">Implement   changes   to</tspan><tspan dy="1.1em" x="0">the   product   based   on</tspan><tspan dy="1.1em" x="0">results   from</tspan><tspan dy="1.1em" x="0">beta-testing</tspan></text></g></g></g><g transform="translate(2500, 164.8)" class="taskWrapper"><g class="timeline-node section-3"><g><path d="M0 59.8 v-54.8 q0,-5 5,-5 h180 q5,0 5,5 v59.8 H0 Z" class="node-bkg node-undefined" id="node-undefined"/><line y2="64.8" x2="190" y1="64.8" x1="0" class="node-line-3"/></g><g transform="translate(95, 10)"><text text-anchor="middle" dominant-baseline="middle" alignment-baseline="middle" dy="1em"><tspan dy="1em" x="0">Legal</tspan></text></g></g></g><g class="lineWrapper"><line stroke-dasharray="5,5" marker-end="url(#arrowhead)" stroke="black" stroke-width="2" y2="581.0000076293945" x2="2595" y1="229.60000000000002" x1="2595"/></g><g transform="translate(2500, 364.8)" class="eventWrapper"><g class="timeline-node section-3"><g><path d="M0 70.60000305175781 v-65.60000305175781 q0,-5 5,-5 h180 q5,0 5,5 v70.60000305175781 H0 Z" class="node-bkg node-undefined" id="node-undefined"/><line y2="75.60000305175781" x2="190" y1="75.60000305175781" x1="0" class="node-line-3"/></g><g transform="translate(95, 10)"><text text-anchor="middle" dominant-baseline="middle" alignment-baseline="middle" dy="1em"><tspan dy="1em" x="0">Ensure   the   product   is</tspan><tspan dy="1.1em" x="0">protected   by   patent</tspan><tspan dy="1.1em" x="0">before   product   launch</tspan></text></g></g></g><g transform="translate(2700, 164.8)" class="taskWrapper"><g class="timeline-node section-3"><g><path d="M0 59.8 v-54.8 q0,-5 5,-5 h180 q5,0 5,5 v59.8 H0 Z" class="node-bkg node-undefined" id="node-undefined"/><line y2="64.8" x2="190" y1="64.8" x1="0" class="node-line-3"/></g><g transform="translate(95, 10)"><text text-anchor="middle" dominant-baseline="middle" alignment-baseline="middle" dy="1em"><tspan dy="1em" x="0">Marketing</tspan></text></g></g></g><g class="lineWrapper"><line stroke-dasharray="5,5" marker-end="url(#arrowhead)" stroke="black" stroke-width="2" y2="581.0000076293945" x2="2795" y1="229.60000000000002" x1="2795"/></g><g transform="translate(2700, 364.8)" class="eventWrapper"><g class="timeline-node section-3"><g><path d="M0 55.2000015258789 v-50.2000015258789 q0,-5 5,-5 h180 q5,0 5,5 v55.2000015258789 H0 Z" class="node-bkg node-undefined" id="node-undefined"/><line y2="60.2000015258789" x2="190" y1="60.2000015258789" x1="0" class="node-line-3"/></g><g transform="translate(95, 10)"><text text-anchor="middle" dominant-baseline="middle" alignment-baseline="middle" dy="1em"><tspan dy="1em" x="0">Try   to   reach   new   client</tspan><tspan dy="1.1em" x="0">groups</tspan></text></g></g></g><g transform="translate(2900, 164.8)" class="taskWrapper"><g class="timeline-node section-3"><g><path d="M0 59.8 v-54.8 q0,-5 5,-5 h180 q5,0 5,5 v59.8 H0 Z" class="node-bkg node-undefined" id="node-undefined"/><line y2="64.8" x2="190" y1="64.8" x1="0" class="node-line-3"/></g><g transform="translate(95, 10)"><text text-anchor="middle" dominant-baseline="middle" alignment-baseline="middle" dy="1em"><tspan dy="1em" x="0">Production</tspan></text></g></g></g><g class="lineWrapper"><line stroke-dasharray="5,5" marker-end="url(#arrowhead)" stroke="black" stroke-width="2" y2="581.0000076293945" x2="2995" y1="229.60000000000002" x1="2995"/></g><g transform="translate(2900, 364.8)" class="eventWrapper"><g class="timeline-node section-3"><g><path d="M0 55.2000015258789 v-50.2000015258789 q0,-5 5,-5 h180 q5,0 5,5 v55.2000015258789 H0 Z" class="node-bkg node-undefined" id="node-undefined"/><line y2="60.2000015258789" x2="190" y1="60.2000015258789" x1="0" class="node-line-3"/></g><g transform="translate(95, 10)"><text text-anchor="middle" dominant-baseline="middle" alignment-baseline="middle" dy="1em"><tspan dy="1em" x="0">Scale   up   production   to</tspan><tspan dy="1.1em" x="0">meet   demand</tspan></text></g></g></g><text y="20" font-weight="bold" font-size="4ex" x="1445">Project Timeline</text><g class="lineWrapper"><line marker-end="url(#arrowhead)" stroke="black" stroke-width="4" y2="279.6" x2="3140" y1="279.6" x1="50"/></g></svg>